<svg width="60" height="64" viewBox="0 0 60 64" fill="none" xmlns="http://www.w3.org/2000/svg">
<g clip-path="url(#clip0)">
<path d="M59.8576 54.0786V63.9999H57.9577L53.0336 57.6876V63.9999H50.8278V54.0786H52.8913L57.6518 60.1856V54.0786H59.8576Z" fill="#0360AA"/>
<path d="M49.5683 62.0609V63.9999H41.8264V54.0786H49.4971V56.0176H44.0465V58.0344H48.8425V59.9733H44.0465V62.0609H49.5683Z" fill="#0360AA"/>
<path d="M36.8809 58.2891L41.2073 63.9999H38.5176L35.3653 59.7752L34.1912 60.9711V63.9999H31.9568V54.0786H34.1912V58.4165L38.3183 54.0786H41.0152L36.8809 58.2891Z" fill="#0360AA"/>
<path d="M30.2419 54.0786V63.9999H28.342L23.4179 57.6876V63.9999H21.212V54.0786H23.2756L28.036 60.1856V54.0786H30.2419Z" fill="#0360AA"/>
<path d="M19.3976 54.0786H17.1632V64.007H19.3976V54.0786Z" fill="#0360AA"/>
<path d="M16.1029 62.0185V63.9999H8.80219V54.0786H11.0365V62.0185H16.1029Z" fill="#0360AA"/>
<path d="M7.74194 54.0786V56.06H2.23435V58.1759H7.08729V60.1573H2.23435V63.9999H0V54.0786H7.74194Z" fill="#0360AA"/>
<path d="M60 0V3.12074H57.8297V16.3751L54.1437 22.6095L46.658 13.778H51.6105L54.2007 0.60858L60 0Z" fill="#0360AA"/>
<path d="M43.4986 13.7778L52.8415 24.8101L43.4915 40.6261L25.7163 19.531L30.5408 13.7778H43.4986Z" fill="#0360AA"/>
<path d="M24.1366 21.3994L48.0313 49.7479H0.249023L24.1366 21.3994Z" fill="#0360AA"/>
</g>
<defs>
<clipPath id="clip0">
<rect width="60" height="64" fill="white"/>
</clipPath>
</defs>
</svg>
